# xmcd CD database file
#
# Track frame offsets:
#	200
#	23872
#	42971
#	61199
#	84154
#	111535
#	133144
#	153450
#
# Disc length: 2319 seconds
#
# Revision: 3
# Processed by: cddbd v1.5.2PL0 Copyright (c) Steve Scherf et al.
# Submitted via: CDex 1.70beta2
#
DISCID=64090d08
DTITLE=RC SUCCESSION - BLUE
DYEAR=1981
DGENRE=Rock
TTITLE0=ロックン・ロール・ショー
TTITLE1=Johnny Blue
TTITLE2=多摩蘭坂
TTITLE3=ガ・ガ・ガ・ガ・ガ
TTITLE4=まぼろし
TTITLE5=チャンスは今夜
TTITLE6=よそ者
TTITLE7=あの娘のレター
EXTD=YEAR: 1981
EXTT0=
EXTT1=
EXTT2=
EXTT3=
EXTT4=
EXTT5=
EXTT6=
EXTT7=
PLAYORDER=
